# xmcd
#
# Track frame offsets:
#	150
#	12847
#	28711
#	44760
#	59116
#	74772
#	89290
#	108111
#	133224
#	150659
#	165711
#	183565
#
# Disc length: 2697 seconds
#
# Revision: 1
# Processed by: cddbd v1.5.2PL0 Copyright (c) Steve Scherf et al.
# Submitted via: audiograbber 1.83.01
#
DISCID=ad0a870c
DTITLE=The Giant Mountains Band - Long Lonesome Road
DYEAR=2013
DGENRE=Bluegrass
TTITLE0=Borrowed Time
TTITLE1=Spring Return
TTITLE2=Oceans Apart
TTITLE3=Northbound
TTITLE4=My First Love
TTITLE5=The Game That We Can't Win
TTITLE6=Coming Back Home To You
TTITLE7=Dreamed Of North Dakota
TTITLE8=Way Back Home
TTITLE9=Long Lonesome Road
TTITLE10=I Am In Darkness
TTITLE11=Train 420
EXTD=
EXTT0=
EXTT1=
EXTT2=
EXTT3=
EXTT4=
EXTT5=
EXTT6=
EXTT7=
EXTT8=
EXTT9=
EXTT10=
EXTT11=
PLAYORDER=
